HIERARCHY
ROOT root
{
	OFFSET 0.000000 0.000000 0.000000
	CHANNELS 6 Xposition Yposition Zposition Zrotation Yrotation Xrotation
	JOINT lhip
	{
		OFFSET 0.058581 -0.082280 -0.017664
		CHANNELS 3 Zrotation Yrotation Xrotation
		JOINT lknee
		{
			OFFSET 0.043451 -0.386469 0.008037
			CHANNELS 3 Zrotation Yrotation Xrotation
			JOINT lankle
			{
				OFFSET -0.014790 -0.426874 -0.037428
				CHANNELS 3 Zrotation Yrotation Xrotation
				JOINT ltoe
				{
					OFFSET 0.041054 -0.060286 0.122042
					CHANNELS 3 Zrotation Yrotation Xrotation
					End Site
					{
						OFFSET 0.000000 0.000000 0.000000
					}
				}
			}
		}
	}
	JOINT rhip
	{
		OFFSET -0.060310 -0.090513 -0.013543
		CHANNELS 3 Zrotation Yrotation Xrotation
		JOINT rknee
		{
			OFFSET -0.043257 -0.383688 -0.004843
			CHANNELS 3 Zrotation Yrotation Xrotation
			JOINT rankle
			{
				OFFSET 0.019056 -0.420046 -0.034562
				CHANNELS 3 Zrotation Yrotation Xrotation
				JOINT rtoe
				{
					OFFSET -0.034840 -0.062106 0.130323
					CHANNELS 3 Zrotation Yrotation Xrotation
					End Site
					{
						OFFSET 0.000000 0.000000 0.000000
					}
				}
			}
		}
	}
	JOINT lowerback
	{
		OFFSET 0.004439 0.124404 -0.038385
		CHANNELS 3 Zrotation Yrotation Xrotation
		JOINT upperback
		{
			OFFSET 0.004488 0.137956 0.026820
			CHANNELS 3 Zrotation Yrotation Xrotation
			JOINT chest
			{
				OFFSET -0.002265 0.056032 0.002855
				CHANNELS 3 Zrotation Yrotation Xrotation
				JOINT lowerneck
				{
					OFFSET -0.013390 0.211636 -0.033468
					CHANNELS 3 Zrotation Yrotation Xrotation
					JOINT upperneck
					{
						OFFSET 0.010113 0.088937 0.050410
						CHANNELS 3 Zrotation Yrotation Xrotation
						End Site
						{
							OFFSET 0.000000 0.000000 0.000000
						}
					}
				}
				JOINT lclavicle
				{
					OFFSET 0.071702 0.114000 -0.018898
					CHANNELS 3 Zrotation Yrotation Xrotation
					JOINT lshoulder
					{
						OFFSET 0.122921 0.045205 -0.019046
						CHANNELS 3 Zrotation Yrotation Xrotation
						JOINT lelbow
						{
							OFFSET 0.255332 -0.015649 -0.022946
							CHANNELS 3 Zrotation Yrotation Xrotation
							JOINT lwrist
							{
								OFFSET 0.265709 0.012698 -0.007375
								CHANNELS 3 Zrotation Yrotation Xrotation
								End Site
								{
									OFFSET 0.000000 0.000000 0.000000
								}
							}
						}
					}
				}
				JOINT rclavicle
				{
					OFFSET -0.082954 0.112472 -0.023707
					CHANNELS 3 Zrotation Yrotation Xrotation
					JOINT rshoulder
					{
						OFFSET -0.113228 0.046853 -0.008472
						CHANNELS 3 Zrotation Yrotation Xrotation
						JOINT relbow
						{
							OFFSET -0.260127 -0.014369 -0.031269
							CHANNELS 3 Zrotation Yrotation Xrotation
							JOINT rwrist
							{
								OFFSET -0.269108 0.006794 -0.006027
								CHANNELS 3 Zrotation Yrotation Xrotation
								End Site
								{
									OFFSET 0.000000 0.000000 0.000000
								}
							}
						}
					}
				}
			}
		}
	}
}
MOTION
Frames: 10
Frame Time: 0.033333
-0.411914 3.017502 0.993751 -2.584954 -0.472731 82.790572 3.439746 5.700880 10.175889 -3.758242 0.285383 -1.957550 4.026885 13.860974 -9.837372 0.000000 -0.000000 0.000000 -3.066746 -3.189778 -3.029555 0.964857 -5.317141 22.062341 3.792876 -7.811455 -11.048104 0.000000 -0.000000 0.000000 0.123116 -1.576244 4.417233 0.775352 -1.851032 10.597291 -0.798837 -1.542608 -0.840731 4.189992 0.205340 2.720091 1.106928 0.229288 10.322947 -29.463235 2.567904 2.842667 -58.817193 -7.031708 9.042661 13.573694 -34.359568 2.790427 -1.429388 -6.916062 3.455873 26.985739 3.040420 4.120057 58.942498 6.567947 12.236948 -13.768010 24.036160 -3.645597 2.174471 7.523652 -0.648358 
-0.412639 3.018547 0.993851 -2.486491 -0.574532 82.716456 3.379120 5.752026 10.194719 -3.740354 0.137384 -1.988376 4.149553 13.893084 -9.719151 0.000000 -0.000000 0.000000 -3.143419 -3.236004 -2.929131 1.097571 -5.067861 21.915803 4.096213 -8.164187 -11.163970 0.000000 -0.000000 0.000000 0.066776 -1.475111 4.333053 0.866769 -1.977957 10.656113 -0.784618 -1.576244 -0.926135 4.069449 0.056079 2.854707 1.152535 0.304993 10.299839 -29.431238 2.633262 2.950324 -58.992649 -6.857113 9.279437 13.648166 -33.732182 2.794514 -1.325675 -6.618789 3.229641 26.939281 2.962540 4.202188 58.955470 6.520076 12.334159 -13.743126 24.223901 -3.690538 2.192388 7.452461 -0.738485 
-0.413312 3.019560 0.993880 -2.364059 -0.628802 82.672584 3.378261 5.771139 10.177431 -3.744236 0.072596 -2.015840 4.117271 13.836535 -9.645147 0.000000 -0.000000 0.000000 -3.197501 -3.313597 -2.890936 1.146672 -5.069290 21.827960 4.101466 -8.187938 -11.170053 0.000000 -0.000000 0.000000 0.087430 -1.488206 4.225872 0.893264 -2.021562 10.671631 -0.779309 -1.589312 -0.921448 4.047376 -0.000019 2.862316 1.131426 0.282785 10.330075 -29.401481 2.695123 2.954901 -59.133571 -6.659657 9.331340 13.625967 -33.016892 2.844779 -1.394149 -6.515854 3.253559 26.923068 2.845947 4.153169 58.972548 6.489606 12.338959 -13.677695 24.463226 -3.678434 2.143078 7.497950 -0.728344 
-0.413979 3.020945 0.993936 -2.267764 -0.700173 82.622371 3.355114 5.794731 10.147153 -3.745892 0.015905 -2.039773 4.098560 13.789562 -9.564921 0.000000 -0.000000 0.000000 -3.258960 -3.351937 -2.881764 1.206588 -5.087941 21.763452 4.063177 -8.225390 -11.107240 0.000000 -0.000000 0.000000 0.122799 -1.499377 4.125714 0.910980 -2.049779 10.712214 -0.780814 -1.591905 -0.914248 4.025996 -0.014569 2.810974 1.109243 0.251576 10.231723 -29.389521 2.771694 2.985374 -59.272065 -6.402562 9.316284 13.656385 -32.188016 2.828391 -1.571227 -6.383620 3.287772 26.908171 2.804823 4.114792 58.968400 6.509171 12.325114 -13.653508 24.723356 -3.718398 2.144423 7.549553 -0.735300 
-0.414237 3.021839 0.994003 -2.216641 -0.726967 82.581735 3.333594 5.806470 10.126133 -3.722115 -0.016135 -2.048933 4.077882 13.778424 -9.499934 0.000000 -0.000000 0.000000 -3.269134 -3.323570 -2.855234 1.220985 -5.125420 21.692302 4.025247 -8.275347 -11.068746 0.000000 -0.000000 0.000000 0.158938 -1.516420 4.137522 0.921820 -2.054008 10.680313 -0.764142 -1.590237 -0.889756 3.990584 -0.049283 2.801326 1.102219 0.242531 10.123893 -29.365292 2.805126 3.028049 -59.388266 -6.238138 9.306406 13.702370 -31.763065 2.805308 -1.635977 -6.292388 3.245185 26.869737 2.825112 4.086627 58.955327 6.529837 12.321253 -13.663307 24.847524 -3.734629 2.129400 7.574497 -0.758910 
-0.414601 3.023072 0.994047 -2.103668 -0.764952 82.541903 3.304940 5.822717 10.083134 -3.704625 -0.079548 -2.061975 4.071497 13.758754 -9.437238 0.000000 -0.000000 0.000000 -3.288577 -3.288583 -2.832312 1.244882 -5.152304 21.606772 3.987836 -8.375267 -11.006301 0.000000 -0.000000 0.000000 0.176572 -1.530321 4.131951 0.943239 -2.075248 10.679993 -0.747743 -1.600369 -0.876017 3.982051 -0.102143 2.751654 1.108201 0.218939 10.047878 -29.384622 2.840430 3.042478 -59.475741 -6.052464 9.301679 13.754355 -31.168829 2.736709 -1.732167 -6.203725 3.273270 26.870220 2.842589 4.020499 58.901547 6.594092 12.315612 -13.658964 24.936926 -3.780924 2.110116 7.594936 -0.709919 
-0.414871 3.024317 0.994064 -1.991977 -0.773172 82.549186 3.301708 5.827339 9.976974 -3.700833 -0.117899 -2.059465 4.081834 13.723585 -9.376531 0.000000 -0.000000 0.000000 -3.272244 -3.348436 -2.913308 1.241934 -5.146162 21.600052 3.969714 -8.419114 -10.964829 0.000000 -0.000000 0.000000 0.216083 -1.507475 4.106237 0.986260 -2.109972 10.649155 -0.734267 -1.610063 -0.885501 3.979074 -0.178428 2.722001 1.102426 0.199093 10.039895 -29.383786 2.916543 3.057407 -59.585637 -5.871094 9.332359 13.769599 -30.725411 2.682977 -1.731714 -6.094389 3.274059 26.847604 2.838825 3.955065 58.860390 6.661833 12.318011 -13.672335 24.956306 -3.859263 2.071882 7.597420 -0.693224 
-0.414963 3.025527 0.994072 -1.840642 -0.738055 82.561626 3.337973 5.794799 9.848191 -3.701010 -0.150647 -2.037839 4.081108 13.660696 -9.314893 0.000000 -0.000000 0.000000 -3.231081 -3.417705 -2.977448 1.248576 -5.186264 21.562935 3.950106 -8.463373 -10.913569 0.000000 -0.000000 0.000000 0.293689 -1.503680 4.150717 1.033847 -2.143128 10.517033 -0.717640 -1.628518 -0.853847 4.000672 -0.300362 2.662098 1.096111 0.177470 10.075535 -29.366955 3.028704 3.065346 -59.735094 -5.690008 9.378320 13.775704 -30.440076 2.691257 -1.723307 -5.996449 3.135226 26.815997 2.792855 3.868900 58.802825 6.711557 12.333213 -13.677291 24.977159 -3.893449 2.046486 7.596418 -0.716737 
-0.415076 3.026570 0.994063 -1.726004 -0.724519 82.537460 3.361368 5.785037 9.812966 -3.707437 -0.167428 -2.071071 4.055251 13.607045 -9.241850 0.000000 -0.000000 0.000000 -3.226356 -3.474790 -2.975691 1.266588 -5.219117 21.499302 3.925210 -8.468475 -10.857429 0.000000 -0.000000 0.000000 0.339046 -1.486022 4.167327 1.058639 -2.140673 10.488418 -0.709324 -1.628918 -0.834756 4.062246 -0.388436 2.624137 1.108098 0.128393 10.100111 -29.410883 3.136115 3.076247 -59.795579 -5.577811 9.349759 13.799253 -30.259346 2.641625 -1.760144 -5.962489 3.107961 26.825661 2.768389 3.805403 58.760558 6.772748 12.325040 -13.698082 24.972606 -3.940531 2.033006 7.593058 -0.710715 
-0.415167 3.027659 0.994057 -1.611725 -0.719049 82.502711 3.372129 5.766121 9.790511 -3.713766 -0.202416 -2.105047 4.040428 13.557892 -9.175518 0.000000 -0.000000 0.000000 -3.234033 -3.515396 -2.945063 1.291175 -5.257813 21.417278 3.904687 -8.490862 -10.818627 0.000000 -0.000000 0.000000 0.365699 -1.460413 4.126136 1.076210 -2.117936 10.533316 -0.704068 -1.618365 -0.807764 4.142138 -0.409944 2.577826 1.101429 0.062072 10.115450 -29.457779 3.260617 3.102061 -59.809405 -5.480094 9.284622 13.822319 -30.256418 2.553434 -1.762474 -5.925259 3.103587 26.859306 2.767345 3.758914 58.721644 6.828699 12.315205 -13.735688 24.972593 -4.013845 2.018000 7.577951 -0.730244 
